<?xml version="1.0" standalone="no"?>
<!DOCTYPE svg PUBLIC "-//W3C//DTD SVG 20010904//EN"
 "http://www.w3.org/TR/2001/REC-SVG-20010904/DTD/svg10.dtd">
<svg version="1.0" xmlns="http://www.w3.org/2000/svg"
 width="573.000000pt" height="573.000000pt" viewBox="0 0 573.000000 573.000000"
 preserveAspectRatio="xMidYMid meet">
<metadata>
Created by potrace 1.11, written by Peter Selinger 2001-2013
</metadata>
<g transform="translate(0.000000,573.000000) scale(0.100000,-0.100000)"
fill="#000000" stroke="none">
<path d="M2679 5726 c-2 -2 -38 -6 -79 -10 -41 -3 -86 -8 -100 -10 -14 -3 -47
-7 -74 -11 -27 -3 -101 -17 -165 -31 -64 -14 -123 -27 -131 -29 -9 -2 -56 -15
-105 -31 -922 -284 -1638 -1012 -1912 -1944 -14 -47 -27 -94 -29 -105 -37
-166 -59 -298 -74 -450 -8 -83 -5 -492 4 -535 3 -14 7 -43 10 -65 10 -86 28
-193 41 -245 8 -30 16 -66 19 -80 5 -26 43 -165 52 -190 3 -8 5 -16 5 -17 1
-1 12 -33 26 -70 14 -37 32 -85 40 -107 38 -104 226 -464 253 -486 4 -3 9 -12
12 -20 3 -8 44 -66 90 -128 365 -485 838 -827 1413 -1020 137 -46 331 -92 452
-107 26 -4 55 -8 63 -10 89 -24 570 -25 745 -1 328 45 601 129 900 276 756
373 1304 1054 1509 1875 60 240 81 418 80 700 0 220 -6 292 -40 495 -9 52 -17
97 -19 101 -2 3 -7 21 -10 40 -11 61 -68 257 -95 324 -5 11 -16 40 -25 65 -96
259 -303 610 -470 799 -301 341 -565 550 -914 725 -238 120 -584 235 -785 261
-27 3 -52 8 -55 9 -3 2 -37 7 -76 10 -38 4 -83 10 -100 12 -37 6 -450 15 -456
10z"/>
</g>
</svg>
